<?xml version="1.0" encoding="UTF-8" standalone="no"?>
<!-- Created with Inkscape (http://www.inkscape.org/) -->

<svg
   width="85.333336"
   height="48"
   viewBox="0 0 22.577778 12.7"
   version="1.1"
   id="svg5"
   inkscape:version="1.2.1 (9c6d41e410, 2022-07-14)"
   sodipodi:docname="i-spy-notify.svg"
   inkscape:export-filename="i-spy-notify.png"
   inkscape:export-xdpi="512"
   inkscape:export-ydpi="512"
   xmlns:inkscape="http://www.inkscape.org/namespaces/inkscape"
   xmlns:sodipodi="http://sodipodi.sourceforge.net/DTD/sodipodi-0.dtd"
   xmlns:xlink="http://www.w3.org/1999/xlink"
   xmlns="http://www.w3.org/2000/svg"
   xmlns:svg="http://www.w3.org/2000/svg">
  <sodipodi:namedview
     id="namedview7"
     pagecolor="#505050"
     bordercolor="#ffffff"
     borderopacity="1"
     inkscape:showpageshadow="0"
     inkscape:pageopacity="0"
     inkscape:pagecheckerboard="1"
     inkscape:deskcolor="#505050"
     inkscape:document-units="mm"
     showgrid="false"
     inkscape:zoom="9.2363889"
     inkscape:cx="47.8542"
     inkscape:cy="39.409341"
     inkscape:window-width="1912"
     inkscape:window-height="1046"
     inkscape:window-x="0"
     inkscape:window-y="0"
     inkscape:window-maximized="1"
     inkscape:current-layer="text1227" />
  <defs
     id="defs2">
    <linearGradient
       inkscape:collect="always"
       id="linearGradient1142">
      <stop
         style="stop-color:#4e4e4e;stop-opacity:1;"
         offset="0"
         id="stop1138" />
      <stop
         style="stop-color:#000000;stop-opacity:1;"
         offset="1"
         id="stop1140" />
    </linearGradient>
    <radialGradient
       inkscape:collect="always"
       xlink:href="#linearGradient1142"
       id="radialGradient1144"
       cx="6.3499999"
       cy="9.9815331"
       fx="6.3499999"
       fy="9.9815331"
       r="1.310073"
       gradientUnits="userSpaceOnUse"
       gradientTransform="translate(-2.4332282,0.05499411)" />
  </defs>
  <g
     inkscape:label="Layer 1"
     inkscape:groupmode="layer"
     id="layer1">
    <path
       style="fill:#000000;fill-opacity:1;stroke:none;stroke-width:0.265;stroke-linecap:butt;stroke-linejoin:miter;stroke-dasharray:none;stroke-opacity:1"
       d="m 3.9167718,0.74699411 c 0.7830754,0 1.5,0.42123749 1.5,1.80799999 0,1.2287507 -1.5,5.142 -1.5,5.142 0,0 -1.5,-3.8113306 -1.5,-5.142 0,-1.3306694 0.7169246,-1.80799999 1.5,-1.80799999 z"
       id="path176"
       sodipodi:nodetypes="csczc" />
    <path
       style="fill:none;fill-opacity:1;stroke:#000000;stroke-width:0.265;stroke-linecap:butt;stroke-linejoin:miter;stroke-dasharray:none;stroke-opacity:1"
       d="m 1.2088693,10.054994 c 0,0 0.8561473,-1.4406182 2.7083513,-1.4359999 1.8522039,0.00462 2.5971024,1.4359109 2.5971024,1.4359109 0,0 -0.5305864,1.373392 -2.5945512,1.348179 -2.0639648,-0.02521 -2.7109025,-1.34809 -2.7109025,-1.34809 z"
       id="path178"
       sodipodi:nodetypes="cscsc" />
    <circle
       style="fill:url(#radialGradient1144);fill-opacity:1;fill-rule:evenodd;stroke:#000000;stroke-width:0.265;stroke-dasharray:none;stroke-opacity:1;paint-order:stroke fill markers"
       id="path232"
       cx="3.9167717"
       cy="10.036528"
       r="1.310073" />
    <g
       aria-label="I
Spy.
Notify!"
       id="text1227"
       style="font-size:3.175px;line-height:1.25;font-family:monospace;-inkscape-font-specification:monospace;stroke-width:0.264583">
      <path
         d="M 7.9095093,1.0725524 H 9.1947021 V 1.3361022 H 8.7094604 V 3.12359 H 9.1947021 V 3.3871398 H 7.9095093 V 3.12359 H 8.394751 V 1.3361022 H 7.9095093 Z"
         id="path1287" />
      <path
         d="M 9.1667969,5.1203673 V 5.4381774 Q 9.0241699,5.3467101 8.8799927,5.3002013 8.7373657,5.2536925 8.5916382,5.2536925 q -0.2216919,0 -0.3503662,0.1038696 -0.1286744,0.1023194 -0.1286744,0.2775025 0,0.153479 0.083716,0.2340942 0.085266,0.080615 0.3162597,0.1348755 l 0.1643311,0.037207 q 0.3255615,0.075964 0.4743896,0.2387451 0.1488281,0.1627808 0.1488281,0.4433838 0,0.3302124 -0.2046386,0.5038452 -0.2046387,0.1736328 -0.5953125,0.1736328 -0.1627808,0 -0.3271118,-0.035657 Q 8.008728,7.3310851 7.8428467,7.2613219 v -0.333313 q 0.1782837,0.1131714 0.3364135,0.1658813 0.1596802,0.05271 0.3209107,0.05271 0.2371948,0 0.3689697,-0.1054199 0.1317749,-0.1069702 0.1317749,-0.2976563 0,-0.1736328 -0.091467,-0.2651001 Q 8.8195312,6.3869566 8.5947388,6.3373473 L 8.4273071,6.2985899 Q 8.1048462,6.2257262 7.9591186,6.0784484 7.8133911,5.9311705 7.8133911,5.6831236 q 0,-0.3100585 0.2077393,-0.4960937 0.2092895,-0.1875854 0.5550048,-0.1875854 0.1333252,0 0.2806031,0.031006 0.1472778,0.029456 0.3100586,0.089917 z"
         id="path1289" />
      <path
         d="M 10.090771,7.1372984 V 8.0163145 H 9.8039672 V 5.6195616 h 0.2868038 v 0.2216919 q 0.07131,-0.1286743 0.189136,-0.1953369 0.119373,-0.068213 0.274402,-0.068213 0.314709,0 0.492993,0.243396 0.179834,0.243396 0.179834,0.6743775 0,0.4232299 -0.179834,0.6650756 -0.179834,0.2402954 -0.492993,0.2402954 -0.15813,0 -0.277502,-0.066663 -0.117823,-0.068213 -0.186036,-0.1968872 z M 10.92793,6.489276 q 0,-0.3317627 -0.10542,-0.5007446 -0.10387,-0.168982 -0.310059,-0.168982 -0.207739,0 -0.314709,0.1705323 -0.106971,0.1689819 -0.106971,0.4991943 0,0.3286621 0.106971,0.4991943 0.10697,0.1705322 0.314709,0.1705322 0.206189,0 0.310059,-0.1689819 0.10542,-0.1689819 0.10542,-0.5007446 z"
         id="path1291" />
      <path
         d="m 12.751074,6.7977843 q -0.07131,0.1813843 -0.181384,0.4774902 -0.153479,0.4092773 -0.206189,0.4991943 -0.07131,0.1209229 -0.178284,0.1813843 -0.10697,0.060461 -0.249597,0.060461 H 11.706177 V 7.7775694 h 0.168982 q 0.125573,0 0.196887,-0.072864 0.07131,-0.072864 0.181384,-0.3767212 L 11.582153,5.6195616 h 0.302307 l 0.514698,1.3580567 0.506945,-1.3580567 h 0.302308 z"
         id="path1293" />
      <path
         d="m 14.090527,6.8830504 h 0.390674 v 0.4728393 h -0.390674 z"
         id="path1295" />
      <path
         d="m 7.8133911,9.0100523 h 0.396875 L 8.9916137,10.915362 V 9.0100523 H 9.2939209 V 11.32464 H 8.8970459 L 8.1156982,9.4193296 V 11.32464 H 7.8133911 Z"
         id="path1297" />
      <path
         d="m 10.464392,9.7882994 q -0.217041,0 -0.328662,0.1689819 -0.111621,0.1689817 -0.111621,0.5007447 0,0.330212 0.111621,0.500745 0.111621,0.168981 0.328662,0.168981 0.218591,0 0.330212,-0.168981 0.111622,-0.170533 0.111622,-0.500745 0,-0.331763 -0.111622,-0.5007447 -0.111621,-0.1689819 -0.330212,-0.1689819 z m 0,-0.2418457 q 0.361218,0 0.551904,0.2340942 0.192237,0.2340941 0.192237,0.6774781 0,0.444934 -0.190686,0.679028 -0.190686,0.232544 -0.553455,0.232544 -0.361218,0 -0.5519043,-0.232544 -0.190686,-0.234094 -0.190686,-0.679028 0,-0.443384 0.190686,-0.6774781 0.1906863,-0.2340942 0.5519043,-0.2340942 z"
         id="path1299" />
      <path
         d="m 12.372803,9.0953184 v 0.4929932 h 0.648022 v 0.2216919 h -0.648022 v 0.9425785 q 0,0.192236 0.07286,0.2682 0.07286,0.07597 0.254248,0.07597 h 0.320911 v 0.227893 h -0.348816 q -0.32091,0 -0.452685,-0.128675 -0.131775,-0.128674 -0.131775,-0.443383 V 9.8100035 H 11.624011 V 9.5883116 h 0.463538 V 9.0953184 Z"
         id="path1301" />
      <path
         d="m 13.729309,9.5883116 h 0.730188 v 1.5146364 h 0.565857 v 0.221692 h -1.416968 v -0.221692 h 0.565857 V 9.8100035 h -0.444934 z m 0.444934,-0.6759277 h 0.285254 v 0.3612182 h -0.285254 z"
         id="path1303" />
      <path
         d="m 16.891907,8.9123839 v 0.2371948 h -0.324012 q -0.153479,0 -0.21394,0.063562 -0.05891,0.062012 -0.05891,0.2216919 v 0.153479 h 0.596863 V 9.8100035 H 16.295044 V 11.32464 H 16.00979 V 9.8100035 H 15.546252 V 9.5883116 H 16.00979 V 9.4673887 q 0,-0.2852539 0.130224,-0.4201294 0.131775,-0.1348754 0.409278,-0.1348754 z"
         id="path1305" />
      <path
         d="m 18.485608,10.766534 q -0.07131,0.181384 -0.181384,0.47749 -0.153479,0.409278 -0.206189,0.499195 -0.07131,0.120923 -0.178284,0.181384 -0.10697,0.06046 -0.249597,0.06046 H 17.44071 v -0.238745 h 0.168982 q 0.125574,0 0.196888,-0.07286 0.07131,-0.07286 0.181384,-0.376722 L 17.316687,9.5883116 h 0.302307 l 0.514697,1.3580564 0.506946,-1.3580564 h 0.302307 z"
         id="path1307" />
      <path
         d="m 19.866918,9.0100523 h 0.31471 v 1.0154417 l -0.03256,0.553455 h -0.249597 l -0.03256,-0.553455 z m 0,1.9208127 h 0.31471 v 0.393775 h -0.31471 z"
         id="path1309" />
    </g>
  </g>
</svg>
