<svg width="163" height="16" viewBox="0 0 163 16" fill="none" xmlns="http://www.w3.org/2000/svg">
<path d="M15.6406 2.69531C15.6406 3.13281 15.4844 3.5 15.1719 3.79688C14.875 4.10938 14.5078 4.26562 14.0703 4.26562H4.69531C4.39844 4.28125 4.14844 4.35156 3.94531 4.47656C3.75781 4.58594 3.61719 4.71875 3.52344 4.875C3.42969 5.01562 3.38281 5.16406 3.38281 5.32031C3.38281 5.47656 3.42969 5.63281 3.52344 5.78906C3.61719 5.92969 3.75781 6.0625 3.94531 6.1875C4.14844 6.29688 4.39844 6.35938 4.69531 6.375H11.3516C12.4453 6.40625 13.3438 6.66406 14.0469 7.14844C14.7656 7.61719 15.2734 8.16406 15.5703 8.78906C15.8828 9.39844 16.0391 10.0234 16.0391 10.6641C16.0391 11.2891 15.8828 11.9141 15.5703 12.5391C15.2578 13.1484 14.75 13.6953 14.0469 14.1797C13.3438 14.6484 12.4453 14.8828 11.3516 14.8828H11.2109C11.1172 14.8984 11.0234 14.9062 10.9297 14.9062H2.07031C1.63281 14.9062 1.25781 14.7578 0.945312 14.4609C0.648438 14.1484 0.5 13.7734 0.5 13.3359C0.5 12.8984 0.65625 12.5312 0.96875 12.2344C1.26562 11.9219 1.63281 11.7656 2.07031 11.7656H11.4922C11.7891 11.7812 12.0312 11.7266 12.2188 11.6016C12.4219 11.4766 12.5703 11.3359 12.6641 11.1797C12.7578 11.0078 12.8047 10.8359 12.8047 10.6641C12.8047 10.5547 12.7578 10.4062 12.6641 10.2188C12.5703 10.0156 12.4219 9.85156 12.2188 9.72656C12.0312 9.60156 11.7891 9.53125 11.4922 9.51562H4.83594C3.74219 9.48438 2.83594 9.23438 2.11719 8.76562C1.41406 8.29688 0.90625 7.76562 0.59375 7.17188C0.296875 6.5625 0.148438 5.94531 0.148438 5.32031C0.148438 4.71094 0.304688 4.10938 0.617188 3.51562C0.929688 2.90625 1.4375 2.36719 2.14062 1.89844C2.84375 1.42969 3.74219 1.17969 4.83594 1.14844H4.97656C5.07031 1.13281 5.16406 1.125 5.25781 1.125H14.0703C14.5078 1.125 14.875 1.28125 15.1719 1.59375C15.4844 1.89062 15.6406 2.25781 15.6406 2.69531ZM23.75 0.75C24.1875 0.75 24.5625 0.898438 24.875 1.19531C25.1875 1.47656 25.3516 1.83594 25.3672 2.27344V4.3125H33.3359C33.7734 4.3125 34.1484 4.46094 34.4609 4.75781C34.7578 5.07031 34.9062 5.44531 34.9062 5.88281C34.9062 6.32031 34.75 6.69531 34.4375 7.00781C34.1406 7.30469 33.7734 7.45312 33.3359 7.45312H25.3672V7.92188C25.3516 8.5625 25.3906 9.15625 25.4844 9.70312C25.5938 10.2344 25.8438 10.7109 26.2344 11.1328C26.625 11.5547 27.1172 11.7812 27.7109 11.8125H33.4297C33.8672 11.8281 34.2266 11.9922 34.5078 12.3047C34.8047 12.6172 34.9531 12.9922 34.9531 13.4297C34.9375 13.8516 34.7812 14.2109 34.4844 14.5078C34.2031 14.7891 33.8516 14.9375 33.4297 14.9531H26.9141C25.8203 14.8906 24.9141 14.5234 24.1953 13.8516C23.4922 13.1641 22.9844 12.3281 22.6719 11.3438C22.375 10.3594 22.2188 9.3125 22.2031 8.20312V7.45312H19.5078C19.0703 7.45312 18.7031 7.29688 18.4062 6.98438C18.0938 6.6875 17.9375 6.32031 17.9375 5.88281C17.9375 5.44531 18.0859 5.07812 18.3828 4.78125C18.6953 4.46875 19.0703 4.3125 19.5078 4.3125H22.2031V2.27344C22.2188 1.85156 22.375 1.5 22.6719 1.21875C22.9688 0.921875 23.3281 0.765625 23.75 0.75ZM42.0547 14.9531C40.6797 14.9062 39.6406 14.5859 38.9375 13.9922C38.2344 13.3828 37.7266 12.7031 37.4141 11.9531C37.1016 11.1875 36.9453 10.4141 36.9453 9.63281C36.9453 8.82031 37.0938 8.03906 37.3906 7.28906C37.7031 6.52344 38.2109 5.84375 38.9141 5.25C39.6328 4.64062 40.5391 4.32812 41.6328 4.3125H49.2266C50.3203 4.32812 51.2188 4.64062 51.9219 5.25C52.6406 5.84375 53.1484 6.52344 53.4453 7.28906C53.7578 8.03906 53.9141 8.82031 53.9141 9.63281C53.9141 10.4141 53.7578 11.1875 53.4453 11.9531C53.1328 12.7031 52.625 13.3828 51.9219 13.9922C51.2188 14.5859 50.1797 14.9062 48.8047 14.9531H42.0547ZM41.5391 7.45312C41.2422 7.45312 40.9844 7.57812 40.7656 7.82812C40.5469 8.0625 40.3828 8.34375 40.2734 8.67188C40.1797 8.98438 40.1328 9.29688 40.1328 9.60938C40.1328 9.9375 40.1797 10.2656 40.2734 10.5938C40.3828 10.9062 40.5469 11.1875 40.7656 11.4375C40.9844 11.6719 41.2422 11.7969 41.5391 11.8125H49.3203C49.6172 11.7969 49.875 11.6719 50.0938 11.4375C50.3125 11.1875 50.4688 10.9062 50.5625 10.5938C50.6719 10.2656 50.7266 9.9375 50.7266 9.60938C50.7266 9.29688 50.6719 8.98438 50.5625 8.67188C50.4688 8.34375 50.3125 8.0625 50.0938 7.82812C49.875 7.57812 49.6172 7.45312 49.3203 7.45312H41.5391ZM61.3672 14.9531C59.9922 14.9062 58.9531 14.5859 58.25 13.9922C57.5469 13.3828 57.0391 12.7031 56.7266 11.9531C56.4141 11.1875 56.2578 10.4141 56.2578 9.63281C56.2578 8.82031 56.4062 8.03906 56.7031 7.28906C57.0156 6.52344 57.5234 5.84375 58.2266 5.25C58.9453 4.64062 59.8516 4.32812 60.9453 4.3125H69.8516C70.2891 4.3125 70.6562 4.46875 70.9531 4.78125C71.2656 5.07812 71.4219 5.44531 71.4219 5.88281C71.4219 6.32031 71.2656 6.69531 70.9531 7.00781C70.6562 7.30469 70.2891 7.45312 69.8516 7.45312H60.8516C60.5547 7.45312 60.2969 7.57812 60.0781 7.82812C59.8594 8.0625 59.6953 8.34375 59.5859 8.67188C59.4922 8.98438 59.4453 9.29688 59.4453 9.60938C59.4453 9.9375 59.4922 10.2656 59.5859 10.5938C59.6953 10.9062 59.8594 11.1875 60.0781 11.4375C60.2969 11.6719 60.5547 11.7969 60.8516 11.8125H69.8516C70.2891 11.8125 70.6562 11.9688 70.9531 12.2812C71.2656 12.5781 71.4219 12.9453 71.4219 13.3828C71.4219 13.8203 71.2656 14.1875 70.9531 14.4844C70.6562 14.7969 70.2891 14.9531 69.8516 14.9531H61.3672ZM75.5 0.75C75.9219 0.765625 76.2812 0.921875 76.5781 1.21875C76.875 1.5 77.0312 1.85156 77.0469 2.27344V13.7578C76.9531 14.6953 76.4375 15.2031 75.5 15.2812C75.0625 15.2812 74.6797 15.1406 74.3516 14.8594C74.0391 14.5625 73.8828 14.1953 73.8828 13.7578V2.27344C73.8984 1.83594 74.0625 1.47656 74.375 1.19531C74.6875 0.898438 75.0625 0.75 75.5 0.75ZM78.4766 7.28906C78.9297 6.55469 79.7969 6.01562 81.0781 5.67188L87.1016 4.05469C87.5234 3.92969 87.9219 3.96875 88.2969 4.17188C88.6875 4.35938 88.9453 4.66406 89.0703 5.08594C89.2109 5.49219 89.1797 5.89062 88.9766 6.28125C88.7891 6.65625 88.4844 6.91406 88.0625 7.05469L81.6406 8.71875C81.1875 8.89062 80.9688 9.1875 80.9844 9.60938C80.9688 10.0312 81.1875 10.3281 81.6406 10.5L88.0625 12.1641C88.4844 12.3047 88.7891 12.5703 88.9766 12.9609C89.1797 13.3359 89.2109 13.7266 89.0703 14.1328C88.9453 14.5547 88.6875 14.8594 88.2969 15.0469C87.9219 15.25 87.5234 15.2891 87.1016 15.1641L81.0781 13.5469C79.7812 13.1875 78.9062 12.6406 78.4531 11.9062C78.0156 11.1719 77.7969 10.4062 77.7969 9.60938C77.7969 8.8125 78.0234 8.03906 78.4766 7.28906ZM93.2188 0.75C93.6406 0.765625 94 0.921875 94.2969 1.21875C94.5938 1.5 94.75 1.85156 94.7656 2.27344V6.1875H102.383V2.27344C102.398 1.83594 102.562 1.47656 102.875 1.19531C103.188 0.898438 103.562 0.75 104 0.75C104.422 0.765625 104.781 0.921875 105.078 1.21875C105.375 1.5 105.531 1.85156 105.547 2.27344V13.7578C105.453 14.6953 104.938 15.2031 104 15.2812C103.562 15.2812 103.18 15.1406 102.852 14.8594C102.539 14.5625 102.383 14.1953 102.383 13.7578V9.32812H94.7656V13.7578C94.6719 14.6953 94.1562 15.2031 93.2188 15.2812C92.7812 15.2812 92.3984 15.1406 92.0703 14.8594C91.7578 14.5625 91.6016 14.1953 91.6016 13.7578V2.27344C91.6172 1.83594 91.7812 1.47656 92.0938 1.19531C92.4062 0.898438 92.7812 0.75 93.2188 0.75ZM121.555 13.7109V8.0625C121.555 7.67188 121.352 7.46875 120.945 7.45312H112.742C112.445 7.46875 112.188 7.60156 111.969 7.85156C111.75 8.08594 111.586 8.36719 111.477 8.69531C111.383 9.00781 111.336 9.32812 111.336 9.65625C111.336 9.96875 111.383 10.2891 111.477 10.6172C111.586 10.9297 111.75 11.2109 111.969 11.4609C112.188 11.6953 112.445 11.8125 112.742 11.8125H118.742C119.18 11.8125 119.547 11.9688 119.844 12.2812C120.156 12.5781 120.312 12.9453 120.312 13.3828C120.312 13.8203 120.156 14.1875 119.844 14.4844C119.547 14.7969 119.18 14.9531 118.742 14.9531H112.836C111.742 14.9375 110.836 14.6328 110.117 14.0391C109.414 13.4297 108.906 12.75 108.594 12C108.297 11.2344 108.148 10.4453 108.148 9.63281C108.148 8.85156 108.305 8.08594 108.617 7.33594C108.93 6.57031 109.438 5.89062 110.141 5.29688C110.844 4.6875 111.883 4.35938 113.258 4.3125H123.102C123.539 4.3125 123.914 4.46094 124.227 4.75781C124.539 5.03906 124.703 5.39844 124.719 5.83594V13.7109C124.719 14.1484 124.555 14.5156 124.227 14.8125C123.914 15.0938 123.539 15.2344 123.102 15.2344C122.164 15.1562 121.648 14.6484 121.555 13.7109ZM132.711 15.2578C132.18 15.2578 131.648 15.1641 131.117 14.9766C130.602 14.7891 130.102 14.5156 129.617 14.1562C129.133 13.7812 128.711 13.2891 128.352 12.6797C127.992 12.0703 127.797 11.3438 127.766 10.5V5.50781C127.766 5.07031 127.922 4.71094 128.234 4.42969C128.562 4.13281 128.945 3.98438 129.383 3.98438C130.32 4.0625 130.828 4.57031 130.906 5.50781V10.3125C130.922 10.6875 131 11.0078 131.141 11.2734C131.281 11.5234 131.438 11.7266 131.609 11.8828C131.781 12.0234 131.953 12.1328 132.125 12.2109C132.312 12.2734 132.5 12.3047 132.688 12.3047C132.875 12.3047 133.062 12.2734 133.25 12.2109C133.438 12.1328 133.617 12.0234 133.789 11.8828C133.961 11.7266 134.117 11.5234 134.258 11.2734C134.398 11.0078 134.469 10.6875 134.469 10.3125V5.50781C134.469 5.07031 134.625 4.71094 134.938 4.42969C135.266 4.13281 135.648 3.98438 136.086 3.98438C137.023 4.0625 137.539 4.57031 137.633 5.50781V10.3125C137.648 10.6875 137.727 11 137.867 11.25C138.008 11.5156 138.164 11.7266 138.336 11.8828C138.508 12.0234 138.68 12.1328 138.852 12.2109C139.039 12.2734 139.227 12.3047 139.414 12.3047C139.602 12.3047 139.789 12.2734 139.977 12.2109C140.164 12.1328 140.344 12.0234 140.516 11.8828C140.688 11.7266 140.844 11.5234 140.984 11.2734C141.125 11.0078 141.195 10.6875 141.195 10.3125V5.50781C141.195 5.07031 141.352 4.71094 141.664 4.42969C141.992 4.13281 142.375 3.98438 142.812 3.98438C143.75 4.0625 144.266 4.57031 144.359 5.50781V10.5C144.359 11.3438 144.172 12.0703 143.797 12.6797C143.438 13.2891 143.016 13.7812 142.531 14.1562C142.062 14.5156 141.562 14.7891 141.031 14.9766C140.516 15.1641 139.984 15.2578 139.438 15.2578C138.906 15.2578 138.375 15.1641 137.844 14.9766C137.328 14.7891 136.828 14.5078 136.344 14.1328C136.25 14.0703 136.164 14 136.086 13.9219C135.992 14 135.906 14.0703 135.828 14.1328C135.344 14.5078 134.836 14.7891 134.305 14.9766C133.789 15.1641 133.258 15.2578 132.711 15.2578ZM149.07 0.75C149.492 0.765625 149.852 0.921875 150.148 1.21875C150.445 1.5 150.602 1.85156 150.617 2.27344V13.7578C150.523 14.6953 150.008 15.2031 149.07 15.2812C148.633 15.2812 148.25 15.1406 147.922 14.8594C147.609 14.5625 147.453 14.1953 147.453 13.7578V2.27344C147.469 1.83594 147.633 1.47656 147.945 1.19531C148.258 0.898438 148.633 0.75 149.07 0.75ZM152.047 7.28906C152.5 6.55469 153.367 6.01562 154.648 5.67188L160.672 4.05469C161.094 3.92969 161.492 3.96875 161.867 4.17188C162.258 4.35938 162.516 4.66406 162.641 5.08594C162.781 5.49219 162.75 5.89062 162.547 6.28125C162.359 6.65625 162.055 6.91406 161.633 7.05469L155.211 8.71875C154.758 8.89062 154.539 9.1875 154.555 9.60938C154.539 10.0312 154.758 10.3281 155.211 10.5L161.633 12.1641C162.055 12.3047 162.359 12.5703 162.547 12.9609C162.75 13.3359 162.781 13.7266 162.641 14.1328C162.516 14.5547 162.258 14.8594 161.867 15.0469C161.492 15.25 161.094 15.2891 160.672 15.1641L154.648 13.5469C153.352 13.1875 152.477 12.6406 152.023 11.9062C151.586 11.1719 151.367 10.4062 151.367 9.60938C151.367 8.8125 151.594 8.03906 152.047 7.28906Z" fill="#210E6C"/>
</svg>
