<?xml version="1.0" encoding="UTF-8" standalone="no"?>
<svg
   xmlns:dc="http://purl.org/dc/elements/1.1/"
   xmlns:cc="http://creativecommons.org/ns#"
   xmlns:rdf="http://www.w3.org/1999/02/22-rdf-syntax-ns#"
   xmlns:svg="http://www.w3.org/2000/svg"
   xmlns="http://www.w3.org/2000/svg"
   xmlns:sodipodi="http://sodipodi.sourceforge.net/DTD/sodipodi-0.dtd"
   xmlns:inkscape="http://www.inkscape.org/namespaces/inkscape"
   inkscape:version="1.0 (4035a4fb49, 2020-05-01)"
   inkscape:export-ydpi="96"
   inkscape:export-xdpi="96"
   inkscape:export-filename="/home/narilth/HPK/online-portfolio/src/static/devpost-logo.png"
   height="140"
   width="140"
   sodipodi:docname="devpost-logo.svg"
   xml:space="preserve"
   enable-background="new 0 0 600 116.5"
   viewBox="0 0 140 140"
   y="0px"
   x="0px"
   id="Layer_1"
   version="1.1"><metadata
   id="metadata2806"><rdf:RDF><cc:Work
       rdf:about=""><dc:format>image/svg+xml</dc:format><dc:type
         rdf:resource="http://purl.org/dc/dcmitype/StillImage" /><dc:title></dc:title></cc:Work></rdf:RDF></metadata><defs
   id="defs2804" /><sodipodi:namedview
   inkscape:current-layer="g3392"
   inkscape:window-maximized="0"
   inkscape:window-y="0"
   inkscape:window-x="0"
   inkscape:cy="58.25"
   inkscape:cx="32.209633"
   inkscape:zoom="2.185"
   showgrid="false"
   id="namedview2802"
   inkscape:window-height="1050"
   inkscape:window-width="1916"
   inkscape:pageshadow="2"
   inkscape:pageopacity="0"
   guidetolerance="10"
   gridtolerance="10"
   objecttolerance="10"
   borderopacity="1"
   bordercolor="#666666"
   pagecolor="#ffffff" />



<g
   transform="matrix(0.93213731,0,0,0.93213731,12.105291,13.959493)"
   id="g3392"><polygon
     style="fill:#7c7c7c;fill-opacity:1"
     fill="#3acce6"
     points="539.8,116.5 566.4,116.5 600,58.2 566.4,0 539.8,0 573.4,58.2 "
     id="polygon2779"
     transform="translate(-463.1192,1.7839585)" /><polygon
     style="fill:#7c7c7c;fill-opacity:1"
     fill="#3acce6"
     points="60.2,116.5 33.6,116.5 0,58.2 33.6,0 60.2,0 26.6,58.2 "
     id="polygon2781"
     transform="translate(-12.661529,1.7839585)" /><path
     sodipodi:type="star"
     style="fill:#1b181a;fill-opacity:1;stroke-width:8.05374"
     id="path2824"
     sodipodi:sides="6"
     sodipodi:cx="61.757256"
     sodipodi:cy="60.120441"
     sodipodi:r1="67.451614"
     sodipodi:r2="58.414806"
     sodipodi:arg1="-2.0943951"
     sodipodi:arg2="-1.5707963"
     inkscape:flatsided="true"
     inkscape:rounded="0"
     inkscape:randomized="0"
     d="m 28.031449,1.7056298 67.451614,10e-8 33.725807,58.4148121 -33.725807,58.414808 -67.451615,0 -33.7258068,-58.414809 z" /><g
     id="g2799"
     transform="translate(-22.661529,1.7839585)">
	<path
   fill="#ffffff"
   d="M 80.2,93.6 H 59 V 22.9 h 22.1 c 20.2,0 35.2,9.5 35.2,35.4 0,24.8 -18,35.3 -36.1,35.3 z m 0.5,-57 h -7.5 v 43.2 h 7 c 14.8,0 21.6,-8.7 21.6,-21.6 0,-14.4 -6.2,-21.6 -21.1,-21.6 z"
   id="path2785" />
	
	
	
	
	
	
</g></g>
</svg>
